________________**WrestlingForum.info Presents**___________________

WWE SMACKDOWN


__________________________________________________ _____________


Format                           : MPEG-4
Format profile                   : Base Media
Codec ID                         : isom
File size                        : 493 MiB
Duration                         : 1. 28 min
Overall bit rate                 : 1 557 Kbps


Video
ID                               : 1
Format                           : AVC
Format/Info                      : Advanced Video Codec
Format profile                   : High@L3.0
Format settings, CABAC           : Yes
Format settings, ReFrames        : 5 frames
Format settings, GOP             : M=4, N=13
Codec ID                         : avc1
Codec ID/Info                    : Advanced Video Coding
Duration                         : 44mn 18s
Bit rate mode                    : Variable
Bit rate                         : 1 383 Kbps
Width                            : 704 pixels
Height                           : 400 pixels
Display aspect ratio             : 16:9
Frame rate mode                  : Constant
Frame rate                       : 29.970 fps
Color space                      : YUV
Chroma subsampling               : 4:2:0
Bit depth                        : 8 bits
Scan type                        : Progressive
Bits/(Pixel*Frame)               : 0.164
Stream size                      : 440 MiB (89%)
Writing library                  : x264 core 110


Audio
ID                               : 2
Format                           : AAC
Format/Info                      : Advanced Audio Codec
Format version                   : Version 4
Format profile                   : LC
Format settings, SBR             : No
Codec ID                         : 40
Duration                         : 44mn 18s
Bit rate mode                    : Variable
Bit rate                         : 165 Kbps
Channel(s)                       : 2 channels
Channel positions                : Front: L R
Sampling rate                    : 48.0 KHz
Stream size                      : 52.4 MiB (11%)
Tagged date                      : UTC 2011-08-12 12:13:44


_____________________________________________________________________

            *****   ETWD @@@.....****
